#!OML:ASF Y:\EmotionMaleHayes\Project 1\Capture day 1\Session 1\Male1.ASF
:FULLY-SPECIFIED
:DEGREES
762
root 3.34154 16.4531 -9.90116 4.54035 18.209 -8.78593
lowerback 15.9481 7.01474 -1.93464
upperback 8.92119 9.05489 2.97792
thorax -0.141199 4.42832 2.72612
lowerneck -26.2582 1.26451 7.1927
upperneck 29.1071 -0.978109 -0.692147
head 14.3966 0.345022 -1.67693
rclavicle -3.35946e-014 3.16068e-014
rhumerus -12.6241 29.1028 -86.5052
rradius 92.6442
rwrist -5.8425
rhand -21.8437 -27.0051
rfingers 7.12502
rthumb 4.55972 -56.936
lclavicle -3.35946e-014 3.16068e-014
lhumerus -82.6905 -15.4396 111.286
lradius 56.3322
lwrist -11.3408
lhand 13.5925 -24.9633
lfingers 7.12502
lthumb 38.5252 0.691049
rfemur 13.4213 -4.12993 14.5927
rtibia 3.86565
rfoot -21.6045 2.15913
rtoes -15.2883
lfemur -36.4989 9.82322 -1.91243
ltibia 37.3459
lfoot -7.34354 6.79792
ltoes -4.05871
763
root 3.43919 16.4476 -9.81172 4.82177 17.9877 -8.86956
lowerback 15.9099 7.00263 -1.88006
upperback 8.96444 9.03222 2.47374
thorax 0.015913 4.42504 2.19132
lowerneck -26.4514 1.39941 7.41997
upperneck 28.8238 -0.949501 -0.548221
head 14.3178 0.394435 -1.6478
rclavicle -8.85586e-014 5.80451e-014
rhumerus -12.6917 29.1006 -86.888
rradius 92.8631
rwrist -4.23377
rhand -21.0508 -26.0988
rfingers 7.12502
rthumb 5.32533 -56.0119
lclavicle -8.85586e-014 5.80451e-014
lhumerus -82.956 -16.1098 111.502
lradius 56.4347
lwrist -10.2069
lhand 14.4669 -24.8456
lfingers 7.12502
lthumb 39.3496 0.573408
rfemur 13.3848 -3.70589 14.5191
rtibia 3.9149
rfoot -21.2441 2.04012
rtoes -14.2017
lfemur -36.8234 9.70714 -2.03322
ltibia 38.2863
lfoot -8.06183 7.21287
ltoes -3.62985
764
root 3.54441 16.4457 -9.72277 5.22841 17.7456 -8.74767
lowerback 15.7774 6.99572 -2.07627
upperback 8.99606 8.98802 2.00393
thorax 0.168653 4.40324 1.84078
lowerneck -26.7304 1.54069 7.48564
upperneck 28.7049 -0.855083 -0.39758
head 14.3319 0.46039 -1.57816
rclavicle 9.24349e-015 4.87022e-015
rhumerus -13.0121 29.5858 -87.1193
rradius 93.1454
rwrist -3.84053
rhand -20.6915 -26.1425
rfingers 7.12502
rthumb 5.67222 -56.0465
lclavicle 9.24349e-015 4.87022e-015
lhumerus -83.1181 -16.7063 111.773
lradius 56.5249
lwrist -9.07253
lhand 15.2929 -24.6377
lfingers 7.12502
lthumb 40.1273 0.549858
rfemur 13.2484 -3.31329 14.1872
rtibia 4.13846
rfoot -20.8399 1.97498
rtoes -13.1793
lfemur -37.3734 10.5859 -3.10658
ltibia 39.503
lfoot -7.19414 8.18339
ltoes -25.8539
765
root 3.65008 16.4463 -9.63774 5.62573 17.5144 -8.79608
lowerback 15.6778 7.0109 -2.24526
upperback 8.94656 8.97997 1.73017
thorax 0.187984 4.39777 1.65994
lowerneck -26.9911 1.61337 7.36016
upperneck 28.6935 -0.776835 -0.241029
head 14.387 0.502692 -1.47818
rclavicle -2.94947e-014 3.91606e-014
rhumerus -13.3946 30.5991 -87.0546
rradius 93.3823
rwrist -4.76962
rhand -19.7208 -24.2715
rfingers 7.12502
rthumb 6.60933 -54.1483
lclavicle -2.94947e-014 3.91606e-014
lhumerus -83.1941 -17.0994 112.056
lradius 56.5717
lwrist -8.18975
lhand 15.7118 -24.4159
lfingers 7.12502
lthumb 40.5212 0.650727
rfemur 12.9608 -3.29161 13.9655
rtibia 4.56932
rfoot -20.5718 1.90672
rtoes -14.6639
lfemur -37.7094 10.8911 -3.42982
ltibia 40.2807
lfoot -7.75385 8.27073
ltoes -27.1952
766
root 3.7563 16.4527 -9.55432 6.04333 17.2423 -8.82628
lowerback 15.5701 7.03906 -2.31658
upperback 8.89125 9.00086 1.395
thorax 0.22828 4.41118 1.36012
lowerneck -27.1472 1.62754 7.28875
upperneck 28.5639 -0.767949 -0.158006
head 14.3638 0.506339 -1.42976
rclavicle 4.53726e-014 -1.07344e-014
rhumerus -13.6362 30.7589 -87.0104
rradius 93.3319
rwrist -3.94197
rhand -22.3048 -26.8744
rfingers 7.12502
rthumb 4.11443 -56.8144
lclavicle 4.53726e-014 -1.07344e-014
lhumerus -83.1921 -17.649 112.202
lradius 56.6626
lwrist -7.39716
lhand 15.4322 -24.19
lfingers 7.12502
lthumb 40.2583 0.957575
rfemur 12.5696 -3.48644 13.6179
rtibia 5.14138
rfoot -20.2653 2.00372
rtoes -16.1438
lfemur -37.8381 10.8481 -3.396
ltibia 40.7259
lfoot -9.34907 7.50972
ltoes -13.5206
767
root 3.86425 16.4644 -9.47093 6.44596 17.0425 -9.00032
lowerback 15.4065 6.99646 -2.19956
upperback 8.83289 8.95651 1.06394
thorax 0.323265 4.39842 0.981914
lowerneck -26.7542 1.63596 6.96838
upperneck 28.0109 -0.67197 0.157583
head 14.0491 0.538069 -1.22543
rclavicle 3.3197e-014 -4.59193e-014
rhumerus -14.1983 30.8434 -87.4053
rradius 93.1879
rwrist -3.50374
rhand -19.4117 -24.8871
rfingers 7.12502
rthumb 6.90777 -54.7544
lclavicle 3.3197e-014 -4.59193e-014
lhumerus -83.0457 -18.2874 112.252
lradius 56.7056
lwrist -6.69195
lhand 15.032 -23.9915
lfingers 7.12502
lthumb 39.8818 1.27007
rfemur 12.1268 -3.63248 13.4754
rtibia 5.82144
rfoot -20.0291 2.13655
rtoes -15.9551
lfemur -38.2023 11.3507 -3.52125
ltibia 41.5028
lfoot -10.2683 6.84104
ltoes -8.35661
768
root 3.9697 16.4775 -9.38518 6.78653 16.8437 -9.17395
lowerback 15.249 6.95018 -2.21225
upperback 8.80056 8.89285 0.803341
thorax 0.413094 4.3704 0.749317
lowerneck -26.5783 1.6908 6.72973
upperneck 27.6596 -0.523276 0.327419
head 13.869 0.587946 -1.08718
rclavicle 1.47101e-014 -3.10104e-014
rhumerus -14.9177 31.0502 -87.8524
rradius 92.8429
rwrist -3.56882
rhand -20.2608 -24.7999
rfingers 7.12502
rthumb 6.08801 -54.6924
lclavicle 1.47101e-014 -3.10104e-014
lhumerus -82.6969 -18.8006 112.115
lradius 56.711
lwrist -6.15285
lhand 15.1663 -23.9112
lfingers 7.12502
lthumb 40.0082 1.31238
rfemur 11.7199 -3.75864 13.3661
rtibia 6.75082
rfoot -20.0471 2.1166
rtoes -16.3041
lfemur -38.229 11.3393 -3.61534
ltibia 41.733
lfoot -10.6849 7.24449
ltoes -10.381
769
root 4.0673 16.4905 -9.29556 6.93909 16.6405 -9.42772
lowerback 15.189 6.89688 -1.99482
upperback 8.85857 8.84682 0.4372
thorax 0.598063 4.36162 0.279182
lowerneck -27.1859 1.85023 6.99778
upperneck 27.8709 -0.420741 0.160632
head 14.0878 0.644342 -1.17915
rclavicle -3.65764e-014 -8.74653e-015
rhumerus -15.2953 31.1451 -88.3036
rradius 92.1837
rwrist -3.71768
rhand -20.8 -24.5616
rfingers 7.12502
rthumb 5.56743 -54.4684
lclavicle -3.65764e-014 -8.74653e-015
lhumerus -82.1314 -19.4975 111.509
lradius 56.7782
lwrist -5.63575
lhand 15.4213 -23.6779
lfingers 7.12502
lthumb 40.2481 1.47288
rfemur 11.4084 -4.46057 13.2637
rtibia 7.2831
rfoot -19.2131 1.87775
rtoes -19.9916
lfemur -38.1303 11.74 -3.67765
ltibia 41.9137
lfoot -10.6648 7.71064
ltoes -16.3041
770
root 4.15465 16.5072 -9.2094 7.15194 16.5149 -9.62836
lowerback 15.1042 6.80747 -1.90482
upperback 8.91138 8.73986 0.104666
thorax 0.766954 4.31822 -0.0773559
lowerneck -27.4812 1.93315 6.89145
upperneck 27.7862 -0.344711 0.342027
head 14.1162 0.689823 -1.07208
rclavicle -6.0033e-014 4.53229e-014
rhumerus -15.4325 31.3397 -88.7019
rradius 91.1872
rwrist -3.755
rhand -21.0502 -24.885
rfingers 7.12502
rthumb 5.32586 -54.7981
lclavicle -6.0033e-014 4.53229e-014
lhumerus -81.3741 -20.1212 110.715
lradius 56.8582
lwrist -5.26975
lhand 15.2261 -23.3189
lfingers 7.12502
lthumb 40.0644 1.88767
rfemur 11.2099 -3.86472 13.4942
rtibia 7.41101
rfoot -18.2684 1.94904
rtoes -13.705
lfemur -38.3709 12.7031 -4.21008
ltibia 42.5877
lfoot -9.55984 9.03448
ltoes -35.0572
